<mxfile host="app.diagrams.net" modified="2022-11-26T13:59:47.118Z" agent="5.0 (Windows NT 10.0; Win64; x64) AppleWebKit/537.36 (KHTML, like Gecko) Chrome/107.0.0.0 Safari/537.36" version="20.6.0" etag="FjDIQ4U-aCxldC4GwFqy" type="github">
  <diagram id="j5t1kzL8Hn1Cz-pzJEAG" name="페이지-1">
    <mxGraphModel dx="1778" dy="943" grid="1" gridSize="10" guides="1" tooltips="1" connect="1" arrows="1" fold="1" page="1" pageScale="1" pageWidth="827" pageHeight="1169" math="0" shadow="0">
      <root>
        <mxCell id="0" />
        <mxCell id="1" parent="0" />
        <mxCell id="APxSAgx1kO5o74nnmK6r-24" value="&lt;h1&gt;ROS&lt;/h1&gt;" style="text;html=1;strokeColor=none;fillColor=none;align=center;verticalAlign=middle;whiteSpace=wrap;rounded=0;dashed=1;" vertex="1" parent="1">
          <mxGeometry x="416.25" y="90" width="105" height="35.625" as="geometry" />
        </mxCell>
        <mxCell id="APxSAgx1kO5o74nnmK6r-47" value="" style="group" vertex="1" connectable="0" parent="1">
          <mxGeometry x="210" y="150" width="517.5" height="160" as="geometry" />
        </mxCell>
        <mxCell id="APxSAgx1kO5o74nnmK6r-3" value="" style="rounded=0;whiteSpace=wrap;html=1;fillColor=#dae8fc;strokeColor=#6c8ebf;dashed=1;" vertex="1" parent="APxSAgx1kO5o74nnmK6r-47">
          <mxGeometry width="517.5" height="160" as="geometry" />
        </mxCell>
        <mxCell id="APxSAgx1kO5o74nnmK6r-39" value="" style="rounded=0;whiteSpace=wrap;html=1;fillColor=none;" vertex="1" parent="APxSAgx1kO5o74nnmK6r-47">
          <mxGeometry x="238.5" y="20" width="250" height="120" as="geometry" />
        </mxCell>
        <mxCell id="APxSAgx1kO5o74nnmK6r-38" value="Node" style="ellipse;whiteSpace=wrap;html=1;fillColor=none;" vertex="1" parent="APxSAgx1kO5o74nnmK6r-47">
          <mxGeometry x="248.5" y="65" width="110" height="60" as="geometry" />
        </mxCell>
        <mxCell id="APxSAgx1kO5o74nnmK6r-40" value="&lt;h2&gt;Application Layer&lt;/h2&gt;" style="text;html=1;strokeColor=none;fillColor=none;align=center;verticalAlign=middle;whiteSpace=wrap;rounded=0;" vertex="1" parent="APxSAgx1kO5o74nnmK6r-47">
          <mxGeometry y="65" width="120" height="30" as="geometry" />
        </mxCell>
        <mxCell id="APxSAgx1kO5o74nnmK6r-43" value="&lt;h3&gt;Application&lt;/h3&gt;" style="text;html=1;strokeColor=none;fillColor=none;align=center;verticalAlign=middle;whiteSpace=wrap;rounded=0;" vertex="1" parent="APxSAgx1kO5o74nnmK6r-47">
          <mxGeometry x="313.5" y="35" width="100" height="30" as="geometry" />
        </mxCell>
        <mxCell id="APxSAgx1kO5o74nnmK6r-45" value="Node" style="ellipse;whiteSpace=wrap;html=1;fillColor=none;" vertex="1" parent="APxSAgx1kO5o74nnmK6r-47">
          <mxGeometry x="368.5" y="65" width="110" height="60" as="geometry" />
        </mxCell>
        <mxCell id="APxSAgx1kO5o74nnmK6r-46" value="&lt;b&gt;Master&lt;/b&gt;" style="ellipse;whiteSpace=wrap;html=1;fillColor=none;" vertex="1" parent="APxSAgx1kO5o74nnmK6r-47">
          <mxGeometry x="120" y="65" width="110" height="60" as="geometry" />
        </mxCell>
        <mxCell id="APxSAgx1kO5o74nnmK6r-48" value="" style="group;fillColor=#ffe6cc;strokeColor=#d79b00;container=0;" vertex="1" connectable="0" parent="1">
          <mxGeometry x="210" y="320" width="517.5" height="160" as="geometry" />
        </mxCell>
        <mxCell id="APxSAgx1kO5o74nnmK6r-57" value="" style="rounded=0;whiteSpace=wrap;html=1;fillColor=#d5e8d4;strokeColor=#82b366;dashed=1;" vertex="1" parent="1">
          <mxGeometry x="210" y="490" width="517.5" height="90" as="geometry" />
        </mxCell>
        <mxCell id="APxSAgx1kO5o74nnmK6r-60" value="&lt;h2&gt;OS Layer&lt;/h2&gt;" style="text;html=1;strokeColor=none;fillColor=none;align=center;verticalAlign=middle;whiteSpace=wrap;rounded=0;" vertex="1" parent="1">
          <mxGeometry x="240" y="520" width="60" height="30" as="geometry" />
        </mxCell>
        <mxCell id="APxSAgx1kO5o74nnmK6r-88" value="" style="group" vertex="1" connectable="0" parent="1">
          <mxGeometry x="349" y="500" width="111" height="60" as="geometry" />
        </mxCell>
        <mxCell id="APxSAgx1kO5o74nnmK6r-89" value="" style="rounded=0;whiteSpace=wrap;html=1;fillColor=none;" vertex="1" parent="APxSAgx1kO5o74nnmK6r-88">
          <mxGeometry width="111" height="60" as="geometry" />
        </mxCell>
        <mxCell id="APxSAgx1kO5o74nnmK6r-90" value="&lt;h3&gt;Linux&lt;/h3&gt;" style="text;html=1;strokeColor=none;fillColor=none;align=center;verticalAlign=middle;whiteSpace=wrap;rounded=0;" vertex="1" parent="APxSAgx1kO5o74nnmK6r-88">
          <mxGeometry x="33.3" y="15" width="44.39999999999999" height="30" as="geometry" />
        </mxCell>
        <mxCell id="APxSAgx1kO5o74nnmK6r-94" value="" style="group" vertex="1" connectable="0" parent="1">
          <mxGeometry x="470" y="500" width="111" height="60" as="geometry" />
        </mxCell>
        <mxCell id="APxSAgx1kO5o74nnmK6r-95" value="" style="rounded=0;whiteSpace=wrap;html=1;fillColor=none;" vertex="1" parent="APxSAgx1kO5o74nnmK6r-94">
          <mxGeometry width="111" height="60" as="geometry" />
        </mxCell>
        <mxCell id="APxSAgx1kO5o74nnmK6r-96" value="&lt;h3&gt;Windows&lt;/h3&gt;" style="text;html=1;strokeColor=none;fillColor=none;align=center;verticalAlign=middle;whiteSpace=wrap;rounded=0;" vertex="1" parent="APxSAgx1kO5o74nnmK6r-94">
          <mxGeometry x="33.3" y="15" width="44.39999999999999" height="30" as="geometry" />
        </mxCell>
        <mxCell id="APxSAgx1kO5o74nnmK6r-97" value="" style="group" vertex="1" connectable="0" parent="1">
          <mxGeometry x="590" y="500" width="111" height="60" as="geometry" />
        </mxCell>
        <mxCell id="APxSAgx1kO5o74nnmK6r-98" value="" style="rounded=0;whiteSpace=wrap;html=1;fillColor=none;" vertex="1" parent="APxSAgx1kO5o74nnmK6r-97">
          <mxGeometry width="111" height="60" as="geometry" />
        </mxCell>
        <mxCell id="APxSAgx1kO5o74nnmK6r-99" value="&lt;h3&gt;Mac&lt;/h3&gt;" style="text;html=1;strokeColor=none;fillColor=none;align=center;verticalAlign=middle;whiteSpace=wrap;rounded=0;" vertex="1" parent="APxSAgx1kO5o74nnmK6r-97">
          <mxGeometry x="33.3" y="15" width="44.39999999999999" height="30" as="geometry" />
        </mxCell>
        <mxCell id="APxSAgx1kO5o74nnmK6r-49" value="" style="rounded=0;whiteSpace=wrap;html=1;fillColor=#ffe6cc;strokeColor=#d79b00;dashed=1;" vertex="1" parent="1">
          <mxGeometry x="210" y="320" width="517.5" height="160" as="geometry" />
        </mxCell>
        <mxCell id="APxSAgx1kO5o74nnmK6r-52" value="&lt;h2&gt;Middleware Layer&lt;/h2&gt;" style="text;html=1;strokeColor=none;fillColor=none;align=center;verticalAlign=middle;whiteSpace=wrap;rounded=0;" vertex="1" parent="1">
          <mxGeometry x="210" y="385" width="120" height="30" as="geometry" />
        </mxCell>
        <mxCell id="APxSAgx1kO5o74nnmK6r-65" value="" style="group" vertex="1" connectable="0" parent="1">
          <mxGeometry x="350" y="330" width="350" height="60" as="geometry" />
        </mxCell>
        <mxCell id="APxSAgx1kO5o74nnmK6r-50" value="" style="rounded=0;whiteSpace=wrap;html=1;fillColor=none;" vertex="1" parent="APxSAgx1kO5o74nnmK6r-65">
          <mxGeometry width="350" height="60" as="geometry" />
        </mxCell>
        <mxCell id="APxSAgx1kO5o74nnmK6r-53" value="&lt;h3&gt;Client Libaray&lt;/h3&gt;" style="text;html=1;strokeColor=none;fillColor=none;align=center;verticalAlign=middle;whiteSpace=wrap;rounded=0;" vertex="1" parent="APxSAgx1kO5o74nnmK6r-65">
          <mxGeometry x="105" y="15" width="139.99999999999997" height="30" as="geometry" />
        </mxCell>
        <mxCell id="APxSAgx1kO5o74nnmK6r-66" value="" style="group" vertex="1" connectable="0" parent="1">
          <mxGeometry x="350" y="400" width="170" height="60" as="geometry" />
        </mxCell>
        <mxCell id="APxSAgx1kO5o74nnmK6r-67" value="" style="rounded=0;whiteSpace=wrap;html=1;fillColor=none;" vertex="1" parent="APxSAgx1kO5o74nnmK6r-66">
          <mxGeometry width="170" height="60" as="geometry" />
        </mxCell>
        <mxCell id="APxSAgx1kO5o74nnmK6r-68" value="&lt;h3&gt;ROSTCP/ROSUDP&lt;/h3&gt;" style="text;html=1;strokeColor=none;fillColor=none;align=center;verticalAlign=middle;whiteSpace=wrap;rounded=0;" vertex="1" parent="APxSAgx1kO5o74nnmK6r-66">
          <mxGeometry x="51" y="15" width="68" height="30" as="geometry" />
        </mxCell>
        <mxCell id="APxSAgx1kO5o74nnmK6r-69" value="" style="group" vertex="1" connectable="0" parent="1">
          <mxGeometry x="540" y="400" width="160" height="60" as="geometry" />
        </mxCell>
        <mxCell id="APxSAgx1kO5o74nnmK6r-70" value="" style="rounded=0;whiteSpace=wrap;html=1;fillColor=none;" vertex="1" parent="APxSAgx1kO5o74nnmK6r-69">
          <mxGeometry width="160" height="60" as="geometry" />
        </mxCell>
        <mxCell id="APxSAgx1kO5o74nnmK6r-71" value="&lt;h3&gt;Nodelet API&lt;/h3&gt;" style="text;html=1;strokeColor=none;fillColor=none;align=center;verticalAlign=middle;whiteSpace=wrap;rounded=0;" vertex="1" parent="APxSAgx1kO5o74nnmK6r-69">
          <mxGeometry x="48" y="15" width="64" height="30" as="geometry" />
        </mxCell>
      </root>
    </mxGraphModel>
  </diagram>
</mxfile>
